<?xml version="1.0" encoding="utf-8"?>
<!-- Generator: Adobe Illustrator 26.4.1, SVG Export Plug-In . SVG Version: 6.00 Build 0)  -->
<svg version="1.1" id="Camada_1" xmlns="http://www.w3.org/2000/svg" xmlns:xlink="http://www.w3.org/1999/xlink" x="0px" y="0px"
	 viewBox="0 0 256 256" style="enable-background:new 0 0 256 256;" xml:space="preserve">
<style type="text/css">
	.st0{fill-rule:evenodd;clip-rule:evenodd;fill:#2541FA;}
	.st1{fill-rule:evenodd;clip-rule:evenodd;fill:#233763;}
	.st2{fill-rule:evenodd;clip-rule:evenodd;fill:#2CA3DF;fill-opacity:0.123;}
	.st3{fill:#FFFFFF;}
	.st4{opacity:0.5;fill:#FFFFFF;enable-background:new    ;}
</style>
<path id="background1" class="st0" d="M21.7,2.4C14.1,5.5,9.4,9.2,5.9,14.9c-6.1,9.7-5.9,5.2-5.6,115.2l0.3,100.4l2.6,5.6
	c3.4,7.2,9.5,13.3,16.7,16.7l5.6,2.6h205l5.6-2.6c3.1-1.5,7.5-4.5,9.8-6.8c4.1-4.1,9-12.9,9-16.2c0-0.9,0.5-2,1-2.3
	c0.7-0.4,1-35,1-100.6c0-55-0.4-99.8-0.8-99.5c-0.4,0.3-1.3-1.4-1.9-3.7c-1.7-6.2-7.1-13.7-12.6-17.4C231.9-0.3,236.8,0,127.1,0
	L27.5,0L21.7,2.4 M95.7,22.4l-10.2,9.4l-8,19.9C70,70.2,69,72.1,61.1,82.2C56.5,88.1,52.4,93,52,93s-2.7-0.7-5-1.5S42.6,90,42.5,90
	s-3.7,8.5-8,18.9l-7.7,18.9l-12.7,8.4l-12.7,8.4l14.8,0.3l14.8,0.3V230l28.2,0c25.2,0,28.7-0.2,32.3-1.8
	c8.6-3.9,13.5-13.4,13.5-26.1c0-7.6-2.2-13.1-6.9-17.5c-3.8-3.5-3.8-4-0.7-7.7c1.4-1.6,2.9-4.6,3.5-6.6c1.5-5.5,1.3-16.7-0.5-20.9
	c-0.8-2-1.5-3.8-1.5-4c0-0.2,6.3-0.4,13.9-0.4h13.9l0.3,3.2c0.3,3,0.6,3.3,4.6,3.6l4.2,0.3l0.3,38.7l0.3,38.7h18l0.3-42.2L155,145h7
	v44h18.9c18.6,0,19,0,21.8,2.4c2.5,2.2,2.8,3,2.8,9c0,6.1-0.2,6.8-3.3,9.8l-3.3,3.3l-18.5,0.3l-18.5,0.3V230h21.5
	c24.2,0,29.3-1,35.3-7.2c6.6-6.8,9.6-19.3,7.4-31.2c-1.5-7.9-4.7-12.4-11.2-16c-5-2.8-6.3-3-18.9-3.5l-13.5-0.5l-0.3-9.7l-0.3-9.7
	l19.8-0.3l19.8-0.3l0.3-3.2l0.3-3.2H256l0.3,41.2c0.1,22.7,0.3-4,0.3-59.2c0-79.3-0.1-88-0.5-41.5c-0.5,55.7-0.6,58.8-2.2,55.5
	c-0.9-1.9-3.2-6.9-5.2-11c-3.4-7.2-3.8-7.7-10.4-11.3c-6.6-3.6-7.1-4.2-16.7-18.7c-5.4-8.2-9.9-14.9-10-14.9
	c-0.1,0-5.7,1.1-12.6,2.5L186.5,90l-2.2-2.7c-1.2-1.5-8.1-10.8-15.3-20.8l-13-18l-18.2-14.8c-12.1-9.9-20.4-15.8-24.6-17.8
	c-3.5-1.6-6.6-2.9-6.8-2.9C106.1,13,101.4,17.2,95.7,22.4 M50,163v10h14.8c17.9,0,18.7-0.4,18.7-10.2c0-9.2-1.1-9.8-19.1-9.8H50V163
	 M107,182.5v8.5h22v-17h-22V182.5 M50.7,191.7c-0.4,0.4-0.7,5.3-0.7,11V213h31.8l2.6-3.1c1.9-2.3,2.6-4.2,2.6-7.5
	c0-4.9-2.1-9.8-4.5-10.8C80.3,190.8,51.5,190.8,50.7,191.7"/>
<path id="background2" class="st1" d="M219.8,256H33.1C14.8,256,0,241.1,0,222.8V145h257v73.8C257,239.4,240.4,256,219.8,256z"/>
<path class="st2" d="M19.5,2.8C12.9,6,6.5,12.3,2.8,19.2l-2.3,4.3L0.2,126.2L0,228.8l2.2,5.8c3,7.9,11.2,16.2,19.2,19.2l5.8,2.2H128
	c99.4,0,101,0,106.4-2.1c7.4-2.8,14.8-9.6,18.1-16.7c1.4-3.1,3-6.5,3.6-7.4c1.1-2.1,1.2-205.1,0.1-204.4c-0.4,0.3-1.6-1.7-2.5-4.3
	c-2.2-6.2-9.1-13.8-15.9-17.6l-5.3-3L129,0.2L25.5,0L19.5,2.8 M96.5,22.2c-9.6,8.6-10.1,9.3-13.7,18c-4.1,10-4.7,12.1-1.8,6.7
	c1.2-2.2,1.9-2.8,2-1.8c0,1,0.7,1.8,1.5,1.8s1.5,0.5,1.5,1.2c0,0.6,0.3,0.9,0.7,0.5c0.4-0.4,1.8,0.3,3.2,1.6
	c1.4,1.2,2.1,1.6,1.7,0.8c-0.6-1.1-0.5-1.2,0.4-0.4c0.6,0.6,4.8,11.6,9.1,24.5l8,23.4l-0.5-7.5c-0.5-8.1-0.9-60.7-0.6-68
	c0.2-3.8,0.4-4.1,1-2c0.5,1.5,0.8,1.9,0.9,0.8c0.1-1.5,0.8-1.4,6.2,0.8c3.3,1.4,6.6,2.2,7.2,1.8c0.9-0.5,0.9-0.4,0.1,0.5
	c-0.8,0.9-1.8,0.9-3.9,0.1c-1.5-0.6-3-0.9-3.2-0.7c-0.2,0.2,1,0.9,2.8,1.5c2.4,0.8,3.6,0.8,4.6,0c1.1-0.9,1.7-0.9,2.6,0
	c0.9,0.9,0.7,1.2-0.8,1.2c-1.7,0-1.6,0.2,0.5,1.4c1.4,0.8,2.8,1.2,3.3,0.9c0.4-0.3,3,1.4,5.8,3.7c2.7,2.3,5,3.9,5,3.6
	c0-1.6-21-17.3-26.8-20.1l-6.8-3.3L96.5,22.2 M107.1,16.6c0,1.2,0.3,1.4,0.6,0.6c0.3-0.7,0.3-1.6-0.1-1.9S107,15.5,107.1,16.6
	 M120,21.4c0,0.2,0.8,1,1.8,1.8c1.6,1.2,1.6,1.2,0.4-0.4C120.8,21.1,120,20.6,120,21.4 M0.5,128c0,56.4,0.1,79.4,0.3,51.2
	c0.1-28.2,0.1-74.3,0-102.5C0.6,48.6,0.5,71.6,0.5,128 M142.5,39c1,1.1,2,2,2.3,2s-0.3-0.9-1.3-2s-2-2-2.3-2S141.5,37.9,142.5,39
	 M147.5,43c1,1.1,2,2,2.3,2s-0.3-0.9-1.3-2s-2-2-2.3-2S146.5,41.9,147.5,43 M153.2,47.5c1.6,2,1.2,2.5-12,18.1
	c-7.5,8.8-16.1,19-19,22.5l-5.3,6.4l5-5.3c3.2-3.4,5.2-4.8,5.5-4c0.4,1.1,0.7,1.1,1.9,0c0.8-0.7,1.4-1.7,1.4-2.3s6.1-4.2,13.5-8.1
	c9.2-4.9,12.9-6.4,11.5-4.8l-2,2.3l2.2-1.4c1.2-0.8,2.3-2.3,2.3-3.4c0.1-2.2,1.6,1.7,2.5,6.5c0.3,1.4,1.1,5,1.9,8
	c1.4,5.5,1.4,5.4,1.2-7.7c-0.1-7.4,0.2-12.9,0.7-12.6c1.6,1-7.8-11.8-10.3-14C152,45.9,151.8,45.9,153.2,47.5 M165,63.4
	c0,0.2,0.8,1,1.8,1.8c1.6,1.2,1.6,1.2,0.4-0.4C165.8,63.1,165,62.6,165,63.4 M60.6,83.4C52.2,94,53,93.5,44.8,91.5
	c-2.4-0.6-2.7,0.1-9.9,17.7l-7.5,18.3l-10.2,6.9c-5.6,3.8-10,7.1-9.8,7.4c0.2,0.2,1.7-0.5,3.3-1.6c1.6-1.1,3.5-2.2,4.3-2.4
	c0.8-0.2,4.2-2,7.7-4L29,130l3.5,3.1c3,2.6,3.5,3.7,3.5,7.5c0,4-0.2,4.4-2.5,4.4H31v85.1l28.8-0.3l28.8-0.3l4.7-2.8
	c6.1-3.6,9.6-9.6,11-18.7c1.6-10.2-0.1-16.5-6-23.1c-4.5-5-4.5-5.1-2.5-6.5c5.3-3.7,7.9-23,3.9-30.2l-1.8-3.2h2.5
	c3,0,3.2-1.1,0.8-3.2c-4.6-4-8.8-5.3-19.2-5.8l-10.5-0.5l-1.2-27c-0.6-14.8-1.3-28.8-1.5-30.9l-0.3-3.9L60.6,83.4 M144,76
	c-0.8,0.5-1.1,1-0.5,1s1.7-0.4,2.5-1c0.8-0.5,1.1-1,0.5-1S144.8,75.5,144,76 M139.4,78.6c-1.9,1.5-1.9,1.5,0.3,0.5
	c1.2-0.6,2.2-1.3,2.2-1.6C142,76.7,141.5,76.9,139.4,78.6 M127.6,82.9c-0.3,0.5-0.2,1.2,0.4,1.5c0.5,0.3,1.2,0.2,1.5-0.4
	c0.3-0.5,0.2-1.2-0.4-1.5C128.6,82.2,127.9,82.4,127.6,82.9 M196.5,88.3l-10,2l-4.9,19.6c-2.7,10.8-5.3,21.1-5.8,22.9
	c-0.8,3-1.2,3.2-4.8,3.2c-3.5,0-4,0.3-4,2.4c0,2.7-2.8,4.3-4.4,2.5c-0.8-0.9-0.6-1,0.7-0.6c2.8,1,2.1,0.2-2.3-2.7
	c-3.9-2.6-4.5-2.7-16.2-2.4l-12.2,0.3l-0.3,4.8c-0.3,3.9-0.6,4.8-2.2,4.8c-1.6,0-1.9,0.7-1.9,3.5c0,3.5,0,3.5,4.5,3.5h4.5v78h17v-85
	l2.8,0c2.7,0,7.1-1.9,4.5-2c-0.7,0-1.2-1.2-1.2-2.7c0-1.5,0.3-2.3,0.7-1.9c0.4,0.4,0.7,1.5,0.8,2.4c0,0.9,1.1,1.9,2.5,2.3
	c2.4,0.7,2.4,0.7,0.2,0.8L162,144l0.3,22.1l0.3,22.1l16-0.1c24.2-0.1,27.5,1.3,27.5,11.6c0,5.6-1.6,9.9-4.6,12.4
	c-1.3,1.1-6.3,1.5-20.3,1.9l-18.6,0.5l-0.3,7.8l-0.3,7.8l22.3-0.3c21.7-0.3,22.5-0.4,27.9-2.9c9.7-4.5,13.9-12.8,13.9-27.2
	c0-10.1-1.2-14.8-5.1-19.2c-5.5-6.2-10.7-7.9-25.7-8.4l-13.2-0.4V152h39v-3.4c0-3,0.3-3.5,2.8-3.8c2.5-0.3,2.8-0.6,2.8-4.8v-4.5
	l-11,0.3c-6.7,0.2-10.6,0-10-0.6c1.3-1.2,30.7-9.4,31.3-8.7c0.3,0.3,0,0.5-0.5,0.5c-1.6,0-1.7,15-0.1,15.1c0.7,0.1,0,0.4-1.7,0.8
	c-2,0.5,0.9,0.9,8.6,1.1l11.6,0.4l-2.3-5c-1.2-2.8-3.4-7.6-4.8-10.7c-2.2-4.9-3.4-6.2-8.7-9.2c-3.4-2-6.5-3.6-7-3.6
	c-0.5,0-9.5,4.3-20,9.5c-15.5,7.7-19.9,9.5-23.3,9.4c-2.3-0.1-3.4-0.3-2.4-0.6c1.4-0.4,1.7-1.5,1.7-5.6c0-3.7-0.3-4.8-1-3.7
	c-0.5,0.8-1,1.1-1,0.6c0-1,9.6-16.4,19.2-30.8C212,84.6,212.5,85,196.5,88.3 M4.5,143c-0.4,0.6,0.6,1,2.2,1c2.2,0,2.5-0.2,1.3-1
	C6.1,141.8,5.3,141.8,4.5,143 M50.5,153.2c-0.3,0.8-0.4,5.6-0.2,10.8l0.3,9.4l12.5,0.3c14,0.3,16.2,0,19-2.8c3-3,2.8-11.9-0.4-15.7
	c-2.4-2.8-2.5-2.8-16.5-3.1C53.7,151.9,50.9,152.1,50.5,153.2 M108,182.5v8.5h21v-17h-21V182.5 M50,202v11l16.6-0.3l16.6-0.3l2-2.6
	c2.8-3.8,2.9-11.9,0.2-15.6l-2.1-2.8l-16.6-0.3L50,191V202"/>
<path class="st3" d="M107.9,191h20.7c0.4,0,0.6-0.2,0.6-0.6V174c0-0.4-0.2-0.6-0.6-0.6h-20.7c-0.4,0-0.6,0.2-0.6,0.6v16.4
	C107.3,190.9,107.7,191,107.9,191z"/>
<path class="st3" d="M127.2,144.9h27.1v83.9c0,1-0.4,1.4-1.4,1.4h-15.3c-1,0-1.4-0.4-1.4-1.4v-75.4c0-1-0.4-1.4-1.4-1.4h-6.4
	c-1,0-1.4-0.4-1.4-1.4L127.2,144.9L127.2,144.9z"/>
<path class="st3" d="M162,144.9h59.1v5.8c0,1-0.4,1.4-1.4,1.4H183c-1,0-1.4,0.4-1.4,1.4v16.8c0,1,0.4,1.4,1.4,1.4h13.3
	c6.8,0,12.2,1,16.2,2.7c4.1,1.9,7,4.1,9.1,7c1.9,2.7,3.3,5.8,3.9,9.5c0.6,3.5,0.8,6.8,0.8,9.9c0,4.1-0.6,7.9-1.7,11.6
	c-1.2,3.7-2.7,6.8-5.2,9.5c-2.3,2.7-5.4,4.8-9.3,6.2c-3.7,1.5-8.3,2.3-13.7,2.3h-33.2c-1,0-1.4-0.4-1.4-1.4V215c0-1,0.4-1.4,1.4-1.4
	h31.3c2.9,0,5.6-1.2,7.7-3.3c2.1-2.1,3.5-5.6,3.5-9.9c0-2.7-0.4-4.8-1-6.4c-0.6-1.7-1.5-2.7-2.5-3.5c-1.2-0.8-2.1-1.4-3.7-1.5
	c-1.4-0.2-2.7-0.4-4.3-0.4h-31.1c-1,0-1.4-0.4-1.4-1.4v-42.5H162z"/>
<path class="st4" d="M36,136.9c0-1,0.4-1.4,1.4-1.4h47.7c3.1,0,6,0.6,8.9,1.7c2.7,1.2,5,2.5,7,4.6c1,1,1.9,1.9,2.5,3.1H36V136.9
	L36,136.9z"/>
<path class="st4" d="M159.3,144.9v-4.4c0-1.7-0.4-2.7-1.4-3.7c-1-0.8-2.1-1.2-3.7-1.2h-20.9c-1,0-1.4,0.4-1.4,1.4v7.9L159.3,144.9
	L159.3,144.9z"/>
<path class="st4" d="M226.1,145.4v-7.9c0-1-0.4-1.4-1.4-1.4h-56.6c-1,0-1.4,0.4-1.4,1.4v7.9H226.1z"/>
<path class="st3" d="M104.8,196.8c-0.2-1.2-0.4-2.1-0.8-3.3c-0.4-1.2-0.8-2.1-1.4-3.3c-0.6-1.2-1.2-1.9-1.7-2.7
	c-1.7-1.9-3.3-3.3-4.6-4.8c-1.4-1.5-1.9-2.3-1.9-2.7c0-0.2,0.4-0.6,1.2-1.2c1-0.6,1.7-1.5,2.7-2.9c1.2-1.5,1.9-3.5,2.7-6.2
	c0.8-2.7,1.2-6.4,1.2-11.2c0-3.7-0.6-6.8-1.7-9.7c-0.8-1.5-1.5-2.7-2.1-4.1H31v83.9c0,1,0.4,1.4,1.4,1.4h47c5.2,0,9.3-0.8,12.6-2.3
	c3.1-1.5,5.8-3.7,7.9-6.6c1.9-2.7,3.5-5.8,4.3-9.7c0.8-3.7,1.2-7.5,1.2-11.8C105,199,105,198,104.8,196.8z M50.3,172.1v-18.2
	c0-1,0.4-1.4,1.4-1.4h22.6c2.5,0,4.8,0.8,6.8,2.1c1.9,1.5,2.9,4.1,2.9,7.9c0,4.1-0.8,6.8-2.1,8.3c-1.5,1.7-4.1,2.3-7.5,2.3H51.4
	C50.5,173.3,50.1,172.9,50.3,172.1L50.3,172.1z M86.8,205.2c-0.2,1.4-0.8,2.5-1.4,3.7s-1.5,2.1-2.3,2.9c-1,0.8-2.1,1.2-3.7,1.2h-28
	c-1,0-1.4-0.4-1.4-1.4h0.2v-19.3c0-1,0.4-1.4,1.4-1.4h27.8c0.8,0,1.7,0.2,2.5,0.6c1,0.4,1.9,1,2.5,1.7c0.8,1,1.4,1.9,1.9,3.3
	c0.6,1.5,0.8,3.1,0.8,5.2C87,202.8,87,203.8,86.8,205.2z"/>
</svg>
