<?xml version="1.0" encoding="utf-8"?>
<svg version="1.1" id="Camada_1" xmlns="http://www.w3.org/2000/svg" xmlns:xlink="http://www.w3.org/1999/xlink" x="0px" y="0px"
	 viewBox="0 0 800 800" style="enable-background:new 0 0 800 800;" xml:space="preserve">
<style type="text/css">.st0{fill:#555555;}</style>
<path class="st0" d="M689.5,724.9c0,43-37.9,45.7-45.6,45.7H154.9c-42.9,0-45.4-38.2-45.5-45.7l0-649.7c0-43.1,38-45.7,45.5-45.7
	h330.4l0.2,0.2v128.9c0,25.9,15.6,74.9,74.9,74.9h128.1l1.1,1.1L689.5,724.9z M659.1,204h-98.8c-42.8,0-45.4-38-45.5-45.5V59.1
	L659.1,204z M718.9,724.9V222.3l-204-204.9v-1h-1L497.5,0H154.9C129,0,80,15.7,80,75.1v649.7c0,26,15.7,75.1,74.9,75.1H644
	C669.9,800,718.9,784.3,718.9,724.9z"/>
</svg>
